{
    "asset" : {
        "generator" : "Khronos glTF Blender I/O v3.4.50",
        "version" : "2.0"
    },
    "scene" : 0,
    "scenes" : [
        {
            "name" : "Scene",
            "nodes" : [
                0
            ]
        }
    ],
    "nodes" : [
        {
            "mesh" : 0,
            "name" : "Icosphere"
        }
    ],
    "materials" : [
        {
            "doubleSided" : true,
            "name" : "Material",
            "pbrMetallicRoughness" : {
                "baseColorFactor" : [
                    0.5982688069343567,
                    0.5652298927307129,
                    0.8000000715255737,
                    1
                ],
                "metallicFactor" : 0.9721115827560425,
                "roughnessFactor" : 0.22111552953720093
            }
        }
    ],
    "meshes" : [
        {
            "name" : "Icosphere.002",
            "primitives" : [
                {
                    "attributes" : {
                        "POSITION" : 0,
                        "TEXCOORD_0" : 1,
                        "NORMAL" : 2
                    },
                    "indices" : 3,
                    "material" : 0
                }
            ]
        }
    ],
    "accessors" : [
        {
            "bufferView" : 0,
            "componentType" : 5126,
            "count" : 7680,
            "max" : [
                0.9691610932350159,
                1.0052887201309204,
                1.0024582147598267
            ],
            "min" : [
                -0.9691610932350159,
                -1.0052887201309204,
                -1.0024582147598267
            ],
            "type" : "VEC3"
        },
        {
            "bufferView" : 1,
            "componentType" : 5126,
            "count" : 7680,
            "type" : "VEC2"
        },
        {
            "bufferView" : 2,
            "componentType" : 5126,
            "count" : 7680,
            "type" : "VEC3"
        },
        {
            "bufferView" : 3,
            "componentType" : 5123,
            "count" : 12456,
            "type" : "SCALAR"
        }
    ],
    "bufferViews" : [
        {
            "buffer" : 0,
            "byteLength" : 92160,
            "byteOffset" : 0,
            "target" : 34962
        },
        {
            "buffer" : 0,
            "byteLength" : 61440,
            "byteOffset" : 92160,
            "target" : 34962
        },
        {
            "buffer" : 0,
            "byteLength" : 92160,
            "byteOffset" : 153600,
            "target" : 34962
        },
        {
            "buffer" : 0,
            "byteLength" : 24912,
            "byteOffset" : 245760,
            "target" : 34963
        }
    ],
    "buffers" : [
        {
            "byteLength" : 270672,
            "uri" : "data:application/octet-stream;base64,"
        }
    ]
}
